<svg version="1.1" id="Layer_1" xmlns="http://www.w3.org/2000/svg" xmlns:xlink="http://www.w3.org/1999/xlink" x="0px" y="0px"
	 width="100%" viewBox="0 0 450 452" enable-background="new 0 0 450 452" xml:space="preserve">
<path fill="#FFFFFF" opacity="1.000000" stroke="none" 
	d="
M451.000000,28.000000 
	C451.000000,160.355972 451.000000,292.711945 450.619385,425.403625 
	C449.980804,424.136444 449.890106,422.484680 449.437897,420.938629 
	C446.295135,410.193939 437.956818,404.881805 427.940155,403.269318 
	C417.394470,401.571655 407.590027,404.178894 400.134460,413.176147 
	C395.431091,418.851959 394.743225,425.121704 394.480499,431.939789 
	C388.244568,431.993683 382.465729,431.865814 376.702026,432.103912 
	C375.448151,432.155701 374.248444,433.518097 373.023804,434.276855 
	C374.264435,435.184418 375.480774,436.833099 376.749756,436.874634 
	C383.169098,437.084869 389.602081,436.877258 396.356262,436.979492 
	C399.612213,446.097290 407.485260,449.341705 415.000000,453.000000 
	C288.977356,453.000000 162.954727,453.000000 36.583076,452.630615 
	C45.338001,450.733185 51.058800,444.997803 55.521412,437.067322 
	C61.966591,437.007355 67.956520,437.152252 73.928383,436.888367 
	C75.312462,436.827148 76.634857,435.370483 77.985626,434.555969 
	C76.672188,433.704132 75.392746,432.185699 74.039421,432.116699 
	C68.402718,431.829346 62.743767,431.978241 57.049812,431.524719 
	C58.018074,409.296295 37.290798,398.839996 19.459637,404.255829 
	C10.011710,407.125427 4.066028,413.710785 1.000000,423.000000 
	C1.000000,292.644043 1.000000,162.288055 1.364746,31.577744 
	C3.798863,34.960903 5.413364,39.061047 8.039314,42.354809 
	C12.489300,47.936481 19.199816,49.635124 25.932762,51.521309 
	C25.992701,56.800411 25.778032,61.632816 26.103212,66.428612 
	C26.240997,68.460701 27.512535,70.415916 28.268780,72.406067 
	C29.077173,72.254623 29.885569,72.103180 30.693962,71.951736 
	C30.837223,64.987701 30.980482,58.023666 31.524170,51.031807 
	C34.543083,50.331894 37.243309,49.881584 39.766727,48.951550 
	C55.543926,43.136631 61.635925,26.116646 52.840816,12.545476 
	C49.059235,6.710360 43.009682,3.849933 37.000000,1.000000 
	C162.355972,1.000000 287.711945,1.000000 413.427307,1.360189 
	C411.858917,2.480473 409.855835,3.091959 408.015137,4.024075 
	C392.611389,11.824447 390.633270,33.520969 402.605103,43.360214 
	C407.851227,47.671837 413.640686,49.578255 419.932892,51.521431 
	C419.992767,57.972679 419.846802,63.968765 420.112427,69.946556 
	C420.173706,71.325623 421.644989,72.642036 422.467407,73.987289 
	C423.311554,72.663818 424.821930,71.371704 424.885956,70.011475 
	C425.182983,63.703506 425.078766,57.376648 425.519104,51.030159 
	C434.217346,49.227055 442.200562,46.740425 446.671997,38.717030 
	C448.532959,35.377800 449.581848,31.586008 451.000000,28.000000 
M62.052254,80.696831 
	C58.169525,87.751793 56.866482,95.212860 56.884144,103.334084 
	C57.071102,189.309341 57.095325,275.285339 56.929173,361.260712 
	C56.890381,381.330017 75.259224,398.991974 94.928505,398.994751 
	C181.737274,399.006897 268.546906,398.794800 355.354218,399.150330 
	C375.980957,399.234802 395.021576,381.200256 395.013397,359.487061 
	C394.980835,273.178162 395.091278,186.869064 394.936462,100.560432 
	C394.897278,78.706238 377.367188,61.075928 355.166840,61.046593 
	C268.691467,60.932316 182.215622,60.899284 95.740547,61.099735 
	C81.429077,61.132908 70.210373,67.881729 62.052254,80.696831 
M420.000092,110.092422 
	C420.871368,111.389053 421.742645,112.685684 422.613922,113.982323 
	C423.409241,112.609085 424.821991,111.265991 424.890778,109.857292 
	C425.158478,104.373070 425.185089,98.857666 424.878448,93.377533 
	C424.794800,91.882378 423.232300,90.469963 422.348480,89.019569 
	C421.565674,90.404572 420.179474,91.759056 420.107605,93.180000 
	C419.838806,98.497116 420.000031,103.835976 420.000092,110.092422 
M115.903015,436.977875 
	C116.571381,435.847595 117.239754,434.717285 117.908112,433.587036 
	C116.788071,433.058350 115.679382,432.102783 114.546089,432.072632 
	C108.717499,431.917664 102.875534,431.846497 97.055054,432.113007 
	C95.674301,432.176239 94.358147,433.650055 93.012283,434.475006 
	C94.341492,435.316620 95.641098,436.824249 97.005005,436.884888 
	C102.992500,437.151001 108.998596,436.998749 115.903015,436.977875 
M157.381729,432.935150 
	C149.893936,432.646606 142.407074,432.297058 134.916595,432.181488 
	C134.295441,432.171906 132.954224,434.234436 133.138626,434.496613 
	C133.854279,435.514252 135.028397,436.853607 136.073059,436.889984 
	C142.343292,437.108368 148.632660,437.155060 154.895340,436.846771 
	C155.960205,436.794312 156.926926,434.747467 157.381729,432.935150 
M420.000000,385.389282 
	C420.000031,386.887421 419.688171,388.474976 420.085144,389.859283 
	C420.508118,391.334259 421.601654,392.616913 422.402405,393.983551 
	C423.268219,392.682098 424.817993,391.413055 424.881531,390.073547 
	C425.157288,384.260590 425.135406,378.421356 424.889557,372.605682 
	C424.837708,371.378632 423.387573,370.210693 422.581696,369.015533 
	C421.721466,370.156158 420.214600,371.245575 420.119476,372.446808 
	C419.805023,376.416901 420.000305,380.427399 420.000000,385.389282 
M423.382050,353.938324 
	C423.915924,353.164581 424.898102,352.399445 424.913147,351.615753 
	C425.040161,345.009827 425.097565,338.396881 424.873840,331.796295 
	C424.841553,330.843628 423.202118,329.945404 422.306396,329.022003 
	C421.540619,329.909515 420.136963,330.778809 420.111084,331.687408 
	C419.922821,338.290283 419.922882,344.903809 420.123718,351.506012 
	C420.149628,352.357056 421.671234,353.162567 423.382050,353.938324 
M195.002792,436.998230 
	C195.988037,435.990845 196.973282,434.983459 197.958527,433.976105 
	C196.789047,433.317657 195.636780,432.128845 194.447174,432.090210 
	C188.455322,431.895569 182.448013,431.864838 176.460480,432.117126 
	C175.279572,432.166870 174.161697,433.712463 173.014771,434.568237 
	C174.207260,435.378601 175.372284,436.837067 176.596954,436.889008 
	C182.418030,437.135895 188.255371,436.999695 195.002792,436.998230 
M424.977753,311.910187 
	C424.984924,305.468292 425.114532,299.022156 424.890930,292.588257 
	C424.848694,291.372742 423.402100,290.206024 422.603485,289.016815 
	C421.736023,290.136902 420.165924,291.228180 420.118591,292.381958 
	C419.868286,298.483276 419.887451,304.603302 420.044678,310.710846 
	C420.136292,314.271698 421.840210,315.112030 424.977753,311.910187 
M227.450653,432.000000 
	C223.622452,432.000763 219.780289,431.822632 215.975128,432.119171 
	C214.931168,432.200531 213.997940,433.702972 213.013901,434.553314 
	C214.033554,435.368317 215.029892,436.852173 216.076660,436.888672 
	C222.393845,437.108856 228.726608,437.110077 235.043289,436.882629 
	C236.052048,436.846313 237.006027,435.287933 237.985321,434.433228 
	C236.961441,433.622681 236.027435,432.313873 234.894241,432.109528 
	C232.798508,431.731628 230.586166,432.000549 227.450653,432.000000 
M424.977753,271.910187 
	C424.984924,265.468292 425.114532,259.022156 424.890930,252.588272 
	C424.848694,251.372757 423.402100,250.206039 422.603516,249.016800 
	C421.736023,250.136902 420.165924,251.228195 420.118591,252.381958 
	C419.868286,258.483276 419.887482,264.603302 420.044678,270.710846 
	C420.136322,274.271698 421.840210,275.112030 424.977753,271.910187 
M275.910187,432.022278 
	C269.468292,432.015106 263.022186,431.885468 256.588287,432.109070 
	C255.372757,432.151306 254.206039,433.597900 253.016800,434.396484 
	C254.136917,435.263947 255.228226,436.834106 256.381989,436.881409 
	C262.483307,437.131714 268.603302,437.112549 274.710846,436.955322 
	C278.271698,436.863708 279.112030,435.159790 275.910187,432.022278 
M420.000000,213.833160 
	C420.000031,219.164474 419.838715,224.503967 420.107697,229.821686 
	C420.179565,231.242172 421.567169,232.596085 422.350769,233.980576 
	C423.233826,232.529160 424.794922,231.115646 424.878571,229.619537 
	C425.184998,224.138748 425.158844,218.622711 424.890472,213.137924 
	C424.821594,211.730682 423.404663,210.389404 422.607056,209.017822 
	C421.738068,210.316193 420.869080,211.614563 420.000000,213.833160 
M311.295471,432.000000 
	C306.132782,432.002045 300.965546,431.893280 295.811523,432.105682 
	C294.856079,432.145050 293.953979,433.479004 293.027252,434.215485 
	C293.764038,435.137054 294.477051,436.835297 295.241333,436.858704 
	C302.062897,437.067474 308.895203,437.051239 315.718994,436.883270 
	C316.487732,436.864349 317.926056,435.367523 317.818573,434.783325 
	C317.631836,433.768250 316.648651,432.583038 315.685883,432.117218 
	C314.738831,431.659027 313.402191,432.006195 311.295471,432.000000 
M420.000000,187.298706 
	C420.000031,188.131210 419.757446,189.063751 420.050812,189.775314 
	C420.654297,191.238983 421.544373,192.584473 422.316498,193.978607 
	C423.210968,192.540482 424.793213,191.141190 424.876984,189.657288 
	C425.186218,184.180176 425.156586,178.667557 424.892853,173.185684 
	C424.824524,171.764618 423.440125,170.406876 422.660187,169.020050 
	C421.773468,170.466385 420.243988,171.860779 420.122162,173.368896 
	C419.774689,177.669891 420.000031,182.017151 420.000000,187.298706 
M335.097015,432.022125 
	C334.428619,433.152405 333.760223,434.282684 333.091858,435.412994 
	C334.211884,435.941681 335.320587,436.897217 336.453857,436.927338 
	C342.282471,437.082336 348.124451,437.153534 353.944946,436.886993 
	C355.325714,436.823761 356.641846,435.349945 357.987732,434.524994 
	C356.658539,433.683350 355.358948,432.175720 353.995056,432.115082 
	C348.007538,431.848969 342.001434,432.001251 335.097015,432.022125 
M420.000000,148.241882 
	C420.000000,148.741440 419.816345,149.346939 420.032532,149.721848 
	C420.872803,151.179001 421.840118,152.562927 422.760132,153.974106 
	C423.506744,152.555649 424.836121,151.161911 424.897583,149.714355 
	C425.144501,143.896622 425.115509,138.057816 424.895416,132.237900 
	C424.853912,131.140335 423.474304,130.093384 422.712128,129.023071 
	C421.808502,130.118240 420.190857,131.172150 420.124725,132.315750 
	C419.836853,137.294769 420.000397,142.299866 420.000000,148.241882 
M26.166187,229.651154 
	C27.346092,230.350677 28.525995,231.050201 29.705896,231.749725 
	C30.137236,230.411591 30.916199,229.079956 30.941364,227.734222 
	C31.068649,220.928253 30.999916,214.118622 30.999916,207.346115 
	C27.116167,206.335251 25.859621,207.774292 25.957409,211.295517 
	C26.119272,217.124039 26.009502,222.960114 26.166187,229.651154 
M31.000000,256.537201 
	C31.000000,253.407837 31.000000,250.278458 31.000000,247.247849 
	C27.468699,246.541397 25.845625,247.453522 25.956333,250.959732 
	C26.124210,256.276428 25.789923,261.615173 26.113520,266.917419 
	C26.227589,268.786499 27.647799,270.575806 28.471649,272.401550 
	C29.314432,272.243561 30.157217,272.085571 31.000000,271.927582 
	C31.000000,267.123871 31.000000,262.320160 31.000000,256.537201 
M26.000013,291.796906 
	C26.000036,296.790527 25.790045,301.797516 26.106817,306.770966 
	C26.228003,308.673706 27.553822,310.499695 28.599968,313.005737 
	C31.256264,309.202454 31.850567,297.253601 30.596508,287.206024 
	C27.558331,286.530426 25.712267,287.338379 26.000013,291.796906 
M30.163824,191.267471 
	C30.566122,183.305801 30.968422,175.344116 31.372240,167.352386 
	C27.811827,166.643539 25.906359,167.087097 25.973038,170.679672 
	C26.077253,176.294647 25.749733,181.931595 26.164610,187.517700 
	C26.278425,189.050186 28.385588,190.434647 30.163824,191.267471 
M28.005119,351.481750 
	C29.001539,350.714417 30.839195,349.972473 30.863268,349.175720 
	C31.085495,341.819824 30.994373,334.454437 30.994373,327.244690 
	C27.184546,326.501984 25.838850,327.745117 25.955505,331.088135 
	C26.128229,336.037903 25.887590,341.002075 26.062838,345.951660 
	C26.121790,347.616638 26.912306,349.255676 28.005119,351.481750 
M30.546394,367.124359 
	C27.462177,366.573090 25.830938,367.479797 25.952276,370.998077 
	C26.135813,376.319824 25.786003,381.665863 26.116282,386.973358 
	C26.231831,388.830200 27.687704,390.603638 28.531507,392.415131 
	C29.340971,392.262909 30.150434,392.110687 30.959898,391.958466 
	C30.959898,383.954102 30.959898,375.949707 30.546394,367.124359 
M26.000000,132.733810 
	C27.203848,139.105133 23.327831,146.354477 28.877062,152.489334 
	C31.263264,149.257950 31.858143,138.169861 30.626513,127.249825 
	C26.537548,126.171570 25.697474,128.395508 26.000000,132.733810 
M31.000000,97.514381 
	C31.000000,94.053474 31.000000,90.592560 31.000000,87.237976 
	C27.452280,86.544586 25.840872,87.475227 25.954945,90.978058 
	C26.128052,96.293694 25.788933,101.632103 26.114212,106.933411 
	C26.228664,108.798706 27.657757,110.583321 28.486586,112.404778 
	C29.324390,112.244423 30.162195,112.084068 31.000000,111.923714 
	C31.000000,107.449509 31.000000,102.975304 31.000000,97.514381 
M82.585564,28.000000 
	C88.025154,28.000000 93.464737,28.000000 98.755455,28.000000 
	C99.503281,24.217113 98.286530,22.842346 94.897148,22.953733 
	C89.573097,23.128700 84.237350,23.083122 78.909866,22.972193 
	C75.118523,22.893253 74.452728,24.664387 75.457558,28.000000 
	C77.637711,28.000000 79.625221,28.000000 82.585564,28.000000 
M130.398132,23.000000 
	C126.566795,23.000080 122.733650,22.926752 118.904633,23.020914 
	C115.086418,23.114813 114.907494,23.456623 115.637466,27.704212 
	C123.407219,27.704212 131.154327,27.704212 138.923950,27.704212 
	C139.474060,20.658552 134.303604,23.733324 130.398132,23.000000 
M175.252716,27.999977 
	C176.394348,27.999977 177.535965,27.999977 178.670441,27.999977 
	C179.466995,24.650524 178.784134,22.890833 175.217407,22.968779 
	C169.720932,23.088894 164.218262,23.082077 158.721375,22.971601 
	C155.110138,22.899025 154.630707,24.784708 155.283905,28.000000 
	C161.684921,28.000000 167.995743,28.000000 175.252716,27.999977 
M196.158707,23.335968 
	C195.706970,24.728798 195.255234,26.121628 194.697754,27.840454 
	C203.164520,27.840454 210.886490,27.840454 218.716217,27.840454 
	C219.541306,24.374453 218.473755,22.858465 214.860855,22.958309 
	C208.917221,23.122564 202.966217,23.019835 196.158707,23.335968 
M244.562653,23.000000 
	C242.730698,23.000065 240.897202,22.952126 239.067093,23.010084 
	C235.132980,23.134682 235.061081,23.253836 235.514771,27.779263 
	C243.291046,27.779263 251.069214,27.779263 258.776581,27.779263 
	C259.654175,23.913912 257.975830,22.753963 254.530807,22.962492 
	C251.543991,23.143288 248.537582,23.000032 244.562653,23.000000 
M287.488098,23.000000 
	C284.656616,23.000071 281.823395,22.937181 278.994080,23.015524 
	C275.113617,23.122972 275.009186,23.316637 275.573395,27.750753 
	C283.347748,27.750753 291.116669,27.750753 298.811462,27.750753 
	C299.478455,24.339035 298.405914,22.718470 294.953766,22.970911 
	C292.800018,23.128403 290.625397,23.000069 287.488098,23.000000 
M316.867126,27.996738 
	C324.113800,27.996738 331.360474,27.996738 338.584808,27.996738 
	C338.865204,23.303417 338.816620,23.098360 335.364594,23.030527 
	C329.750793,22.920216 324.132355,22.939077 318.517639,23.022879 
	C314.805115,23.078287 313.951416,24.826925 316.867126,27.996738 
M366.509338,28.000000 
	C370.634399,28.000000 374.759460,28.000000 378.765594,28.000000 
	C379.468384,24.383734 378.451202,22.838362 374.976624,22.953785 
	C369.654297,23.130592 364.319092,23.102375 358.994385,22.965469 
	C355.240723,22.868958 354.469543,24.576969 355.404022,28.000000 
	C358.888794,28.000000 362.204865,28.000000 366.509338,28.000000 
z"/>
<path fill="#000000" opacity="1.000000" stroke="none" 
	d="
M1.000000,423.458069 
	C4.066028,413.710785 10.011710,407.125427 19.459637,404.255829 
	C37.290798,398.839996 58.018074,409.296295 56.747673,431.718842 
	C56.012329,433.944733 55.535954,435.534088 55.059578,437.123413 
	C51.058800,444.997803 45.338001,450.733185 36.117035,452.630615 
	C31.643101,453.000000 27.286201,453.000000 22.347532,452.630554 
	C19.926100,451.736145 18.013540,451.386292 16.259361,450.655975 
	C8.618917,447.475067 4.165896,441.313110 1.000000,434.000000 
	C1.000000,430.638702 1.000000,427.277435 1.000000,423.458069 
z"/>
<path fill="#000000" opacity="1.000000" stroke="none" 
	d="
M451.000000,27.583336 
	C449.581848,31.586008 448.532959,35.377800 446.671997,38.717030 
	C442.200562,46.740425 434.217346,49.227055 425.082611,51.010025 
	C422.789062,51.030724 421.332855,51.045170 419.876678,51.059612 
	C413.640686,49.578255 407.851227,47.671837 402.605103,43.360214 
	C390.633270,33.520969 392.611389,11.824447 408.015137,4.024075 
	C409.855835,3.091959 411.858917,2.480473 413.893372,1.360189 
	C419.354919,1.000000 424.709869,1.000000 430.639954,1.361040 
	C434.961456,3.802571 438.888611,5.618503 442.411407,8.026064 
	C447.590393,11.565484 449.211426,17.385389 451.000000,23.000000 
	C451.000000,24.388889 451.000000,25.777779 451.000000,27.583336 
z"/>
<path fill="#000000" opacity="1.000000" stroke="none" 
	d="
M25.876495,51.059807 
	C19.199816,49.635124 12.489300,47.936481 8.039314,42.354809 
	C5.413364,39.061047 3.798863,34.960903 1.364746,31.111702 
	C1.000000,27.638712 1.000000,24.277426 1.360199,20.351427 
	C1.980500,18.859474 2.173385,17.906954 2.511131,17.008915 
	C5.774475,8.331952 12.834430,4.024303 21.000000,1.000000 
	C26.022093,1.000000 31.044184,1.000000 36.533138,1.000000 
	C43.009682,3.849933 49.059235,6.710360 52.840816,12.545476 
	C61.635925,26.116646 55.543926,43.136631 39.766727,48.951550 
	C37.243309,49.881584 34.543083,50.331894 31.087101,51.014008 
	C28.791903,51.035961 27.334200,51.047886 25.876495,51.059807 
z"/>
<path fill="#000000" opacity="1.000000" stroke="none" 
	d="
M394.943024,431.889374 
	C394.743225,425.121704 395.431091,418.851959 400.134460,413.176147 
	C407.590027,404.178894 417.394470,401.571655 427.940155,403.269318 
	C437.956818,404.881805 446.295135,410.193939 449.437897,420.938629 
	C449.890106,422.484680 449.980804,424.136444 450.619385,425.869629 
	C451.000000,427.066681 451.000000,428.133331 450.619202,429.730591 
	C449.794769,436.102600 448.103363,441.552063 443.249237,445.103363 
	C439.118225,448.125610 434.437500,450.396606 430.000000,453.000000 
	C425.310760,453.000000 420.621490,453.000000 415.466125,453.000000 
	C407.485260,449.341705 399.612213,446.097290 396.357269,436.611328 
	C395.669220,434.683044 395.306122,433.286194 394.943024,431.889374 
z"/>
<path fill="#FFFFFF" opacity="1.000000" stroke="none" 
	d="
M430.468933,453.000000 
	C434.437500,450.396606 439.118225,448.125610 443.249237,445.103363 
	C448.103363,441.552063 449.794769,436.102600 450.619202,430.130554 
	C451.000000,437.589508 451.000000,445.178986 451.000000,453.000000 
	C444.314392,453.000000 437.626099,453.000000 430.468933,453.000000 
z"/>
<path fill="#FFFFFF" opacity="1.000000" stroke="none" 
	d="
M451.000000,22.531218 
	C449.211426,17.385389 447.590393,11.565484 442.411407,8.026064 
	C438.888611,5.618503 434.961456,3.802571 431.107544,1.361040 
	C437.596375,1.000000 444.192749,1.000000 451.000000,1.000000 
	C451.000000,8.019411 451.000000,15.040923 451.000000,22.531218 
z"/>
<path fill="#FFFFFF" opacity="1.000000" stroke="none" 
	d="
M1.000000,434.469360 
	C4.165896,441.313110 8.618917,447.475067 16.259361,450.655975 
	C18.013540,451.386292 19.926100,451.736145 21.882881,452.630554 
	C15.077753,453.000000 8.155507,453.000000 1.000000,453.000000 
	C1.000000,446.981567 1.000000,440.960175 1.000000,434.469360 
z"/>
<path fill="#FFFFFF" opacity="1.000000" stroke="none" 
	d="
M20.530956,1.000000 
	C12.834430,4.024303 5.774475,8.331952 2.511131,17.008915 
	C2.173385,17.906954 1.980500,18.859474 1.360199,19.893358 
	C1.000000,13.738731 1.000000,7.477464 1.000000,1.000000 
	C7.352347,1.000000 13.707130,1.000000 20.530956,1.000000 
z"/>
<path fill="#0084FC" opacity="1.000000" stroke="none" 
	d="
M62.247772,80.376259 
	C70.210373,67.881729 81.429077,61.132908 95.740547,61.099735 
	C182.215622,60.899284 268.691467,60.932316 355.166840,61.046593 
	C377.367188,61.075928 394.897278,78.706238 394.936462,100.560432 
	C395.091278,186.869064 394.980835,273.178162 395.013397,359.487061 
	C395.021576,381.200256 375.980957,399.234802 355.354218,399.150330 
	C268.546906,398.794800 181.737274,399.006897 94.928505,398.994751 
	C75.259224,398.991974 56.890381,381.330017 56.929173,361.260712 
	C57.095325,275.285339 57.071102,189.309341 56.884144,103.334084 
	C56.866482,95.212860 58.169525,87.751793 62.247772,80.376259 
M142.005630,272.903931 
	C142.005630,286.566010 142.005630,300.228058 142.005630,313.959686 
	C156.543182,313.959686 170.291550,313.959686 183.872437,314.889435 
	C183.872437,328.426514 183.872437,341.963623 183.872437,355.532166 
	C198.265976,355.532166 211.955917,355.532166 225.962555,355.532166 
	C225.962555,341.469482 225.962555,327.714996 226.904037,313.994385 
	C254.323410,313.994385 281.742767,313.994385 309.546326,313.994385 
	C309.546326,299.779907 309.546326,286.169312 309.546326,271.886963 
	C323.618164,271.886963 337.319733,271.886963 350.793457,271.886963 
	C350.793457,229.641129 350.793457,188.074387 350.793457,145.921707 
	C336.883331,145.921707 323.332062,145.921707 309.360901,145.921707 
	C309.360901,131.901520 309.360901,118.466415 309.360901,104.741959 
	C267.363312,104.741959 225.806946,104.741959 183.725891,104.741959 
	C183.725891,118.622932 183.725891,132.208023 183.725891,146.235809 
	C169.619705,146.235809 156.030289,146.235809 142.040726,146.235809 
	C142.040726,174.474335 142.040726,202.256363 141.097931,230.005417 
	C127.527107,230.005417 113.956276,230.005417 100.425621,230.005417 
	C100.425621,244.373398 100.425621,257.962250 100.425621,271.962463 
	C114.473198,271.962463 128.256317,271.962463 142.005630,272.903931 
z"/>
<path fill="#231F20" opacity="1.000000" stroke="none" 
	d="
M420.000061,109.629555 
	C420.000031,103.835976 419.838806,98.497116 420.107605,93.180000 
	C420.179474,91.759056 421.565674,90.404572 422.348480,89.019569 
	C423.232300,90.469963 424.794800,91.882378 424.878448,93.377533 
	C425.185089,98.857666 425.158478,104.373070 424.890778,109.857292 
	C424.821991,111.265991 423.409241,112.609085 422.613922,113.982323 
	C421.742645,112.685684 420.871368,111.389053 420.000061,109.629555 
z"/>
<path fill="#231F20" opacity="1.000000" stroke="none" 
	d="
M115.450485,436.988037 
	C108.998596,436.998749 102.992500,437.151001 97.005005,436.884888 
	C95.641098,436.824249 94.341492,435.316620 93.012283,434.475037 
	C94.358147,433.650055 95.674301,432.176239 97.055054,432.113007 
	C102.875534,431.846497 108.717499,431.917664 114.546089,432.072632 
	C115.679382,432.102783 116.788071,433.058350 117.908112,433.587036 
	C117.239754,434.717285 116.571381,435.847595 115.450485,436.988037 
z"/>
<path fill="#231F20" opacity="1.000000" stroke="none" 
	d="
M157.660370,433.278564 
	C156.926926,434.747467 155.960205,436.794312 154.895340,436.846771 
	C148.632660,437.155060 142.343292,437.108368 136.073059,436.889984 
	C135.028397,436.853607 133.854279,435.514252 133.138626,434.496613 
	C132.954224,434.234436 134.295441,432.171906 134.916595,432.181488 
	C142.407074,432.297058 149.893936,432.646606 157.660370,433.278564 
z"/>
<path fill="#231F20" opacity="1.000000" stroke="none" 
	d="
M420.000000,384.905823 
	C420.000305,380.427399 419.805023,376.416901 420.119476,372.446808 
	C420.214600,371.245575 421.721466,370.156158 422.581696,369.015533 
	C423.387573,370.210693 424.837708,371.378632 424.889557,372.605682 
	C425.135406,378.421356 425.157288,384.260590 424.881531,390.073547 
	C424.817993,391.413055 423.268219,392.682098 422.402405,393.983551 
	C421.601654,392.616913 420.508118,391.334259 420.085144,389.859283 
	C419.688171,388.474976 420.000031,386.887421 420.000000,384.905823 
z"/>
<path fill="#231F20" opacity="1.000000" stroke="none" 
	d="
M422.941040,353.963745 
	C421.671234,353.162567 420.149628,352.357056 420.123718,351.506012 
	C419.922882,344.903809 419.922821,338.290283 420.111084,331.687408 
	C420.136963,330.778809 421.540619,329.909515 422.306396,329.022003 
	C423.202118,329.945404 424.841553,330.843628 424.873840,331.796295 
	C425.097565,338.396881 425.040161,345.009827 424.913147,351.615753 
	C424.898102,352.399445 423.915924,353.164581 422.941040,353.963745 
z"/>
<path fill="#231F20" opacity="1.000000" stroke="none" 
	d="
M194.544861,436.999084 
	C188.255371,436.999695 182.418030,437.135895 176.596954,436.889008 
	C175.372284,436.837067 174.207260,435.378601 173.014771,434.568237 
	C174.161697,433.712463 175.279572,432.166870 176.460480,432.117126 
	C182.448013,431.864838 188.455322,431.895569 194.447174,432.090210 
	C195.636780,432.128845 196.789047,433.317657 197.958527,433.976074 
	C196.973282,434.983459 195.988037,435.990845 194.544861,436.999084 
z"/>
<path fill="#231F20" opacity="1.000000" stroke="none" 
	d="
M424.856415,312.340759 
	C421.840210,315.112030 420.136292,314.271698 420.044678,310.710846 
	C419.887451,304.603302 419.868286,298.483276 420.118591,292.381958 
	C420.165924,291.228180 421.736023,290.136902 422.603516,289.016815 
	C423.402100,290.206024 424.848694,291.372742 424.890930,292.588257 
	C425.114532,299.022156 424.984924,305.468292 424.856415,312.340759 
z"/>
<path fill="#231F20" opacity="1.000000" stroke="none" 
	d="
M227.936523,432.000000 
	C230.586166,432.000549 232.798508,431.731628 234.894241,432.109528 
	C236.027435,432.313873 236.961441,433.622681 237.985321,434.433228 
	C237.006027,435.287933 236.052048,436.846313 235.043289,436.882629 
	C228.726608,437.110077 222.393845,437.108856 216.076660,436.888672 
	C215.029892,436.852173 214.033554,435.368317 213.013885,434.553314 
	C213.997940,433.702972 214.931168,432.200531 215.975128,432.119171 
	C219.780289,431.822632 223.622452,432.000763 227.936523,432.000000 
z"/>
<path fill="#231F20" opacity="1.000000" stroke="none" 
	d="
M424.856415,272.340759 
	C421.840210,275.112030 420.136322,274.271698 420.044678,270.710846 
	C419.887482,264.603302 419.868286,258.483276 420.118591,252.381958 
	C420.165924,251.228195 421.736023,250.136902 422.603516,249.016800 
	C423.402100,250.206039 424.848694,251.372757 424.890930,252.588272 
	C425.114532,259.022156 424.984924,265.468292 424.856415,272.340759 
z"/>
<path fill="#231F20" opacity="1.000000" stroke="none" 
	d="
M276.340759,432.143616 
	C279.112030,435.159790 278.271698,436.863708 274.710846,436.955322 
	C268.603302,437.112549 262.483307,437.131714 256.381989,436.881409 
	C255.228226,436.834106 254.136917,435.263947 253.016800,434.396484 
	C254.206039,433.597900 255.372757,432.151306 256.588287,432.109070 
	C263.022186,431.885468 269.468292,432.015106 276.340759,432.143616 
z"/>
<path fill="#231F20" opacity="1.000000" stroke="none" 
	d="
M420.000061,213.373047 
	C420.869080,211.614563 421.738068,210.316193 422.607056,209.017822 
	C423.404663,210.389404 424.821594,211.730682 424.890472,213.137924 
	C425.158844,218.622711 425.184998,224.138748 424.878571,229.619537 
	C424.794922,231.115646 423.233826,232.529160 422.350739,233.980576 
	C421.567169,232.596085 420.179565,231.242172 420.107697,229.821686 
	C419.838715,224.503967 420.000031,219.164474 420.000061,213.373047 
z"/>
<path fill="#231F20" opacity="1.000000" stroke="none" 
	d="
M311.765991,432.000000 
	C313.402191,432.006195 314.738831,431.659027 315.685883,432.117218 
	C316.648651,432.583038 317.631836,433.768250 317.818573,434.783325 
	C317.926056,435.367523 316.487732,436.864349 315.718994,436.883270 
	C308.895203,437.051239 302.062897,437.067474 295.241333,436.858704 
	C294.477051,436.835297 293.764038,435.137054 293.027252,434.215485 
	C293.953979,433.479004 294.856079,432.145050 295.811523,432.105682 
	C300.965546,431.893280 306.132782,432.002045 311.765991,432.000000 
z"/>
<path fill="#231F20" opacity="1.000000" stroke="none" 
	d="
M420.000000,186.822449 
	C420.000031,182.017151 419.774689,177.669891 420.122162,173.368896 
	C420.243988,171.860779 421.773468,170.466385 422.660217,169.020050 
	C423.440125,170.406876 424.824524,171.764618 424.892853,173.185684 
	C425.156586,178.667557 425.186218,184.180176 424.876984,189.657288 
	C424.793213,191.141190 423.210968,192.540482 422.316528,193.978607 
	C421.544373,192.584473 420.654297,191.238983 420.050812,189.775314 
	C419.757446,189.063751 420.000031,188.131210 420.000000,186.822449 
z"/>
<path fill="#231F20" opacity="1.000000" stroke="none" 
	d="
M335.549561,432.011963 
	C342.001434,432.001251 348.007538,431.848969 353.995056,432.115082 
	C355.358948,432.175720 356.658539,433.683350 357.987732,434.524994 
	C356.641846,435.349945 355.325714,436.823761 353.944946,436.886993 
	C348.124451,437.153534 342.282471,437.082336 336.453857,436.927338 
	C335.320587,436.897217 334.211884,435.941681 333.091858,435.412994 
	C333.760223,434.282684 334.428619,433.152405 335.549561,432.011963 
z"/>
<path fill="#231F20" opacity="1.000000" stroke="none" 
	d="
M420.000000,147.768692 
	C420.000397,142.299866 419.836853,137.294769 420.124725,132.315750 
	C420.190857,131.172150 421.808502,130.118240 422.712128,129.023071 
	C423.474304,130.093384 424.853912,131.140335 424.895416,132.237900 
	C425.115509,138.057816 425.144501,143.896622 424.897583,149.714355 
	C424.836121,151.161911 423.506744,152.555649 422.760132,153.974106 
	C421.840118,152.562927 420.872803,151.179001 420.032532,149.721848 
	C419.816345,149.346939 420.000000,148.741440 420.000000,147.768692 
z"/>
<path fill="#231F20" opacity="1.000000" stroke="none" 
	d="
M26.090185,229.222076 
	C26.009502,222.960114 26.119272,217.124039 25.957409,211.295517 
	C25.859621,207.774292 27.116167,206.335251 30.999916,207.346115 
	C30.999916,214.118622 31.068649,220.928253 30.941364,227.734222 
	C30.916199,229.079956 30.137236,230.411591 29.705898,231.749725 
	C28.525995,231.050201 27.346092,230.350677 26.090185,229.222076 
z"/>
<path fill="#231F20" opacity="1.000000" stroke="none" 
	d="
M31.000000,257.026825 
	C31.000000,262.320160 31.000000,267.123871 31.000000,271.927582 
	C30.157217,272.085571 29.314432,272.243561 28.471649,272.401550 
	C27.647799,270.575806 26.227589,268.786499 26.113520,266.917419 
	C25.789923,261.615173 26.124210,256.276428 25.956333,250.959732 
	C25.845625,247.453522 27.468699,246.541397 31.000000,247.247849 
	C31.000000,250.278458 31.000000,253.407837 31.000000,257.026825 
z"/>
<path fill="#231F20" opacity="1.000000" stroke="none" 
	d="
M26.000107,291.329315 
	C25.712267,287.338379 27.558331,286.530426 30.596508,287.206024 
	C31.850567,297.253601 31.256264,309.202454 28.599968,313.005737 
	C27.553822,310.499695 26.228003,308.673706 26.106817,306.770966 
	C25.790045,301.797516 26.000036,296.790527 26.000107,291.329315 
z"/>
<path fill="#231F20" opacity="1.000000" stroke="none" 
	d="
M29.870930,191.577240 
	C28.385588,190.434647 26.278425,189.050186 26.164610,187.517700 
	C25.749733,181.931595 26.077253,176.294647 25.973038,170.679672 
	C25.906359,167.087097 27.811827,166.643539 31.372240,167.352386 
	C30.968422,175.344116 30.566122,183.305801 29.870930,191.577240 
z"/>
<path fill="#231F20" opacity="1.000000" stroke="none" 
	d="
M27.686789,351.194153 
	C26.912306,349.255676 26.121790,347.616638 26.062838,345.951660 
	C25.887590,341.002075 26.128229,336.037903 25.955505,331.088135 
	C25.838850,327.745117 27.184546,326.501984 30.994373,327.244690 
	C30.994373,334.454437 31.085495,341.819824 30.863268,349.175720 
	C30.839195,349.972473 29.001539,350.714417 27.686789,351.194153 
z"/>
<path fill="#231F20" opacity="1.000000" stroke="none" 
	d="
M30.753147,367.534851 
	C30.959898,375.949707 30.959898,383.954102 30.959898,391.958466 
	C30.150434,392.110687 29.340971,392.262909 28.531507,392.415131 
	C27.687704,390.603638 26.231831,388.830200 26.116282,386.973358 
	C25.786003,381.665863 26.135813,376.319824 25.952276,370.998077 
	C25.830938,367.479797 27.462177,366.573090 30.753147,367.534851 
z"/>
<path fill="#231F20" opacity="1.000000" stroke="none" 
	d="
M26.000008,132.265350 
	C25.697474,128.395508 26.537548,126.171570 30.626513,127.249825 
	C31.858143,138.169861 31.263264,149.257950 28.877062,152.489334 
	C23.327831,146.354477 27.203848,139.105133 26.000008,132.265350 
z"/>
<path fill="#231F20" opacity="1.000000" stroke="none" 
	d="
M31.000000,98.007736 
	C31.000000,102.975304 31.000000,107.449509 31.000000,111.923714 
	C30.162195,112.084068 29.324390,112.244423 28.486586,112.404778 
	C27.657757,110.583321 26.228664,108.798706 26.114212,106.933411 
	C25.788933,101.632103 26.128052,96.293694 25.954945,90.978058 
	C25.840872,87.475227 27.452280,86.544586 31.000000,87.237976 
	C31.000000,90.592560 31.000000,94.053474 31.000000,98.007736 
z"/>
<path fill="#231F20" opacity="1.000000" stroke="none" 
	d="
M82.099152,28.000000 
	C79.625221,28.000000 77.637711,28.000000 75.457558,28.000000 
	C74.452728,24.664387 75.118523,22.893253 78.909866,22.972193 
	C84.237350,23.083122 89.573097,23.128700 94.897148,22.953733 
	C98.286530,22.842346 99.503281,24.217113 98.755455,28.000000 
	C93.464737,28.000000 88.025154,28.000000 82.099152,28.000000 
z"/>
<path fill="#231F20" opacity="1.000000" stroke="none" 
	d="
M130.880615,23.000000 
	C134.303604,23.733324 139.474060,20.658552 138.923950,27.704212 
	C131.154327,27.704212 123.407219,27.704212 115.637466,27.704212 
	C114.907494,23.456623 115.086418,23.114813 118.904633,23.020914 
	C122.733650,22.926752 126.566795,23.000080 130.880615,23.000000 
z"/>
<path fill="#231F20" opacity="1.000000" stroke="none" 
	d="
M174.779633,27.999989 
	C167.995743,28.000000 161.684921,28.000000 155.283905,28.000000 
	C154.630707,24.784708 155.110138,22.899025 158.721375,22.971601 
	C164.218262,23.082077 169.720932,23.088894 175.217407,22.968779 
	C178.784134,22.890833 179.466995,24.650524 178.670441,27.999977 
	C177.535965,27.999977 176.394348,27.999977 174.779633,27.999989 
z"/>
<path fill="#231F20" opacity="1.000000" stroke="none" 
	d="
M196.588501,23.182816 
	C202.966217,23.019835 208.917221,23.122564 214.860855,22.958309 
	C218.473755,22.858465 219.541306,24.374453 218.716217,27.840454 
	C210.886490,27.840454 203.164520,27.840454 194.697754,27.840454 
	C195.255234,26.121628 195.706970,24.728798 196.588501,23.182816 
z"/>
<path fill="#231F20" opacity="1.000000" stroke="none" 
	d="
M245.051239,23.000000 
	C248.537582,23.000032 251.543991,23.143288 254.530807,22.962492 
	C257.975830,22.753963 259.654175,23.913912 258.776581,27.779263 
	C251.069214,27.779263 243.291046,27.779263 235.514771,27.779263 
	C235.061081,23.253836 235.132980,23.134682 239.067093,23.010084 
	C240.897202,22.952126 242.730698,23.000065 245.051239,23.000000 
z"/>
<path fill="#231F20" opacity="1.000000" stroke="none" 
	d="
M287.974121,23.000000 
	C290.625397,23.000069 292.800018,23.128403 294.953766,22.970911 
	C298.405914,22.718470 299.478455,24.339035 298.811462,27.750753 
	C291.116669,27.750753 283.347748,27.750753 275.573395,27.750753 
	C275.009186,23.316637 275.113617,23.122972 278.994080,23.015524 
	C281.823395,22.937181 284.656616,23.000071 287.974121,23.000000 
z"/>
<path fill="#231F20" opacity="1.000000" stroke="none" 
	d="
M316.403473,27.978355 
	C313.951416,24.826925 314.805115,23.078287 318.517639,23.022879 
	C324.132355,22.939077 329.750793,22.920216 335.364594,23.030527 
	C338.816620,23.098360 338.865204,23.303417 338.584808,27.996738 
	C331.360474,27.996738 324.113800,27.996738 316.403473,27.978355 
z"/>
<path fill="#231F20" opacity="1.000000" stroke="none" 
	d="
M366.015137,28.000000 
	C362.204865,28.000000 358.888794,28.000000 355.404022,28.000000 
	C354.469543,24.576969 355.240723,22.868958 358.994385,22.965469 
	C364.319092,23.102375 369.654297,23.130592 374.976624,22.953785 
	C378.451202,22.838362 379.468384,24.383734 378.765594,28.000000 
	C374.759460,28.000000 370.634399,28.000000 366.015137,28.000000 
z"/>
<path fill="#231F20" opacity="1.000000" stroke="none" 
	d="
M419.932892,51.521431 
	C421.332855,51.045170 422.789062,51.030724 424.681763,51.036415 
	C425.078766,57.376648 425.182983,63.703506 424.885956,70.011475 
	C424.821930,71.371704 423.311554,72.663818 422.467407,73.987289 
	C421.644989,72.642036 420.173706,71.325623 420.112427,69.946556 
	C419.846802,63.968765 419.992767,57.972679 419.932892,51.521431 
z"/>
<path fill="#231F20" opacity="1.000000" stroke="none" 
	d="
M394.480499,431.939789 
	C395.306122,433.286194 395.669220,434.683044 396.031311,436.447998 
	C389.602081,436.877258 383.169098,437.084869 376.749756,436.874634 
	C375.480774,436.833099 374.264435,435.184418 373.023804,434.276855 
	C374.248444,433.518097 375.448151,432.155701 376.702026,432.103912 
	C382.465729,431.865814 388.244568,431.993683 394.480499,431.939789 
z"/>
<path fill="#231F20" opacity="1.000000" stroke="none" 
	d="
M55.521408,437.067322 
	C55.535954,435.534088 56.012329,433.944733 56.790840,432.161255 
	C62.743767,431.978241 68.402718,431.829346 74.039421,432.116699 
	C75.392746,432.185699 76.672188,433.704132 77.985626,434.555969 
	C76.634857,435.370483 75.312462,436.827148 73.928383,436.888367 
	C67.956520,437.152252 61.966591,437.007355 55.521408,437.067322 
z"/>
<path fill="#231F20" opacity="1.000000" stroke="none" 
	d="
M25.932762,51.521313 
	C27.334200,51.047886 28.791903,51.035961 30.686676,51.041836 
	C30.980482,58.023666 30.837223,64.987701 30.693962,71.951736 
	C29.885569,72.103180 29.077173,72.254623 28.268780,72.406067 
	C27.512535,70.415916 26.240997,68.460701 26.103212,66.428612 
	C25.778032,61.632816 25.992701,56.800411 25.932762,51.521313 
z"/>
<path fill="#FFFFFF" opacity="1.000000" stroke="none" 
	d="
M142.040726,230.038406 
	C142.040726,202.256363 142.040726,174.474335 142.040726,146.235809 
	C156.030289,146.235809 169.619705,146.235809 183.725891,146.235809 
	C183.725891,132.208023 183.725891,118.622932 183.725891,104.741959 
	C225.806946,104.741959 267.363312,104.741959 309.360901,104.741959 
	C309.360901,118.466415 309.360901,131.901520 309.360901,145.921707 
	C323.332062,145.921707 336.883331,145.921707 350.793457,145.921707 
	C350.793457,188.074387 350.793457,229.641129 350.793457,271.886963 
	C337.319733,271.886963 323.618164,271.886963 309.546326,271.886963 
	C309.546326,286.169312 309.546326,299.779907 309.546326,313.994385 
	C281.742767,313.994385 254.323410,313.994385 226.455170,314.000031 
	C226.006317,314.005676 226.050476,314.050446 225.926056,313.592133 
	C225.801620,299.528900 225.801620,285.923950 225.801620,271.692505 
	C253.867065,271.692505 281.381561,271.692505 308.810669,271.692505 
	C308.810669,229.666977 308.810669,188.274536 308.810669,146.902359 
	C267.096649,146.902359 225.729935,146.902359 183.857651,146.902359 
	C183.857651,174.789719 183.857651,202.343048 183.857651,229.956055 
	C169.552429,229.956055 155.754227,229.956055 141.977112,229.976746 
	C141.998169,229.997452 142.040726,230.038406 142.040726,230.038406 
z"/>
<path fill="#FFFFFF" opacity="1.000000" stroke="none" 
	d="
M225.984436,313.983093 
	C225.962555,327.714996 225.962555,341.469482 225.962555,355.532166 
	C211.955917,355.532166 198.265976,355.532166 183.872437,355.532166 
	C183.872437,341.963623 183.872437,328.426514 183.934036,314.447510 
	C183.995636,314.005585 183.951752,314.051849 184.417175,313.963135 
	C198.605209,313.933136 212.327850,313.991791 226.050476,314.050476 
	C226.050476,314.050446 226.006317,314.005676 225.984436,313.983093 
z"/>
<path fill="#FFFFFF" opacity="1.000000" stroke="none" 
	d="
M184.017776,313.982635 
	C170.291550,313.959686 156.543182,313.959686 142.005630,313.959686 
	C142.005630,300.228058 142.005630,286.566010 141.999969,272.455109 
	C141.994293,272.006287 141.949539,272.050446 142.407776,271.925964 
	C156.428940,271.801514 169.991882,271.801514 183.951752,271.801514 
	C183.951752,286.243500 183.951752,300.147675 183.951752,314.051849 
	C183.951752,314.051849 183.995636,314.005585 184.017776,313.982635 
z"/>
<path fill="#FFFFFF" opacity="1.000000" stroke="none" 
	d="
M142.016861,271.984375 
	C128.256317,271.962463 114.473198,271.962463 100.425621,271.962463 
	C100.425621,257.962250 100.425621,244.373398 100.425621,230.005417 
	C113.956276,230.005417 127.527107,230.005417 141.569336,230.021912 
	C142.040726,230.038406 141.998169,229.997452 142.062469,230.441772 
	C142.067703,244.607559 142.008621,258.329010 141.949539,272.050446 
	C141.949539,272.050446 141.994293,272.006287 142.016861,271.984375 
z"/>
<path fill="#0084FC" opacity="1.000000" stroke="none" 
	d="
M142.407776,271.925964 
	C142.008621,258.329010 142.067703,244.607559 142.041412,230.421082 
	C155.754227,229.956055 169.552429,229.956055 183.857651,229.956055 
	C183.857651,202.343048 183.857651,174.789719 183.857651,146.902359 
	C225.729935,146.902359 267.096649,146.902359 308.810669,146.902359 
	C308.810669,188.274536 308.810669,229.666977 308.810669,271.692505 
	C281.381561,271.692505 253.867065,271.692505 225.801620,271.692505 
	C225.801620,285.923950 225.801620,299.528900 225.926056,313.592163 
	C212.327850,313.991791 198.605209,313.933136 184.417175,313.963135 
	C183.951752,300.147675 183.951752,286.243500 183.951752,271.801514 
	C169.991882,271.801514 156.428940,271.801514 142.407776,271.925964 
M267.842957,207.500946 
	C267.842621,202.342712 268.022034,197.173874 267.719116,192.033463 
	C267.640656,190.701630 266.072632,188.358215 265.153656,188.340866 
	C252.225296,188.096863 239.290848,188.175079 226.145721,188.175079 
	C226.145721,202.376633 226.145721,216.073410 226.145721,229.776001 
	C240.144760,229.776001 253.833435,229.776001 267.842896,229.776001 
	C267.842896,222.429901 267.842896,215.465210 267.842957,207.500946 
z"/>
<path fill="#FFFFFF" opacity="1.000000" stroke="none" 
	d="
M267.842926,208.000732 
	C267.842896,215.465210 267.842896,222.429901 267.842896,229.776001 
	C253.833435,229.776001 240.144760,229.776001 226.145721,229.776001 
	C226.145721,216.073410 226.145721,202.376633 226.145721,188.175079 
	C239.290848,188.175079 252.225296,188.096863 265.153656,188.340866 
	C266.072632,188.358215 267.640656,190.701630 267.719116,192.033463 
	C268.022034,197.173874 267.842621,202.342712 267.842926,208.000732 
z"/>
</svg>